<svg xmlns="http://www.w3.org/2000/svg" viewBox="103 388 760 760" width="760" height="760">
<defs>
	<linearGradient gradientUnits="userSpaceOnUse" id="PinGradient" x1="679.852" x2="218.556" y1="865.328" y2="584.599">
		<stop offset="0" stop-color="rgb(25,205,157)" stop-opacity="1"></stop>
		<stop offset="1" stop-color="rgb(2,107,246)" stop-opacity="1"></stop>
	</linearGradient>
</defs>
<path d="M 290.311 864.043 C 272.659 839.999 249.132 810.033 236.691 783.653 C 207.135 719.962 204.167 647.12 228.445 581.236 C 254.619 509.094 303.643 454.679 373.31 421.848 C 433.31 393.572 507.487 387.688 570.236 410.539 C 638.594 434.619 694.553 484.92 725.754 550.335 C 758.297 615.727 762.893 691.531 738.49 760.377 C 726.13 795.927 709.529 816.087 688.001 846.373 C 667.184 875.362 646.738 904.617 626.669 934.129 C 600.544 973.603 574.632 1013.22 548.934 1052.97 C 533.773 1076.68 518.896 1100.56 503.295 1124.02 C 493.407 1138.89 482.826 1146.85 469.426 1129.69 C 459.886 1117.47 451.554 1104.39 442.86 1091.57 C 427.718 1069.63 412.78 1047.56 398.047 1025.35 C 396.956 949.076 397.856 870.963 397.79 794.494 L 397.745 724.897 C 397.724 705.693 396.57 683.443 400.483 664.755 C 414.129 599.575 496.902 570.698 544.931 619.415 C 561.359 636.408 570.499 659.147 570.401 682.782 C 569.705 743.785 512.999 766.3 460.172 764.983 C 455.805 764.869 451.438 764.726 447.073 764.555 C 446.87 796.097 446.844 827.639 446.995 859.18 C 502.501 866.894 549.642 858.388 595.322 823.988 C 635.81 793.33 662.444 747.829 669.352 697.516 C 675.846 650.395 658.026 602.126 629.74 564.868 C 612.685 542.262 590.455 524.078 564.917 511.843 C 559.133 509.099 543.498 503.311 539.111 500.575 C 486.736 487.158 439.908 489.493 392.193 517.696 C 346.715 544.762 313.89 588.826 300.975 640.147 C 291.764 676.157 296.353 711.899 295.387 748.737 C 295.172 756.954 295.873 769.789 295.043 777.568 C 296.127 807.067 295.237 840.537 295.213 870.379 L 290.311 864.043 z" fill="url(#PinGradient)"></path>
<path d="M 290.311 864.043 C 291.77 862.899 293.025 862.462 293.309 860.564 C 297.115 835.163 291.243 802.314 295.043 777.568 C 296.127 807.067 295.237 840.537 295.213 870.379 L 290.311 864.043 z" fill="rgb(27,153,219)"></path>
</svg>
