<svg xmlns="http://www.w3.org/2000/svg" height="1536" preserveAspectRatio="none" style="display: block;" version="1.1" viewBox="0 0 2688 1536" width="2688">
<defs>
	<linearGradient gradientUnits="userSpaceOnUse" id="Gradient1" x1="1559.14" x2="1490.58" y1="889.009" y2="630.878">
		<stop class="stop0" offset="0" stop-color="rgb(33,186,156)" stop-opacity="1"></stop>
		<stop class="stop1" offset="1" stop-color="rgb(8,179,206)" stop-opacity="1"></stop>
	</linearGradient>
	<linearGradient gradientUnits="userSpaceOnUse" id="Gradient2" x1="2132.41" x2="1923.96" y1="926.363" y2="635.598">
		<stop class="stop0" offset="0" stop-color="rgb(91,207,68)" stop-opacity="1"></stop>
		<stop class="stop1" offset="1" stop-color="rgb(31,183,160)" stop-opacity="1"></stop>
	</linearGradient>
	<linearGradient gradientUnits="userSpaceOnUse" id="Gradient3" x1="1844.66" x2="1719.03" y1="925.348" y2="681.098">
		<stop class="stop0" offset="0" stop-color="rgb(67,197,107)" stop-opacity="1"></stop>
		<stop class="stop1" offset="1" stop-color="rgb(24,184,173)" stop-opacity="1"></stop>
	</linearGradient>
	<linearGradient gradientUnits="userSpaceOnUse" id="Gradient4" x1="1355.52" x2="1193.94" y1="917.298" y2="651.28">
		<stop class="stop0" offset="0" stop-color="rgb(24,188,165)" stop-opacity="1"></stop>
		<stop class="stop1" offset="1" stop-color="rgb(6,173,216)" stop-opacity="1"></stop>
	</linearGradient>
	<linearGradient gradientUnits="userSpaceOnUse" id="Gradient5" x1="2416.1" x2="2278.2" y1="881.599" y2="674.848">
		<stop class="stop0" offset="0" stop-color="rgb(121,228,24)" stop-opacity="1"></stop>
		<stop class="stop1" offset="1" stop-color="rgb(65,194,105)" stop-opacity="1"></stop>
	</linearGradient>
	<linearGradient gradientUnits="userSpaceOnUse" id="Gradient6" x1="1043.58" x2="843.216" y1="926.382" y2="658.269">
		<stop class="stop0" offset="0" stop-color="rgb(13,186,194)" stop-opacity="1"></stop>
		<stop class="stop1" offset="1" stop-color="rgb(8,155,226)" stop-opacity="1"></stop>
	</linearGradient>
	<linearGradient gradientUnits="userSpaceOnUse" id="Gradient7" x1="679.852" x2="218.556" y1="865.328" y2="584.599">
		<stop class="stop0" offset="0" stop-color="rgb(25,205,157)" stop-opacity="1"></stop>
		<stop class="stop1" offset="1" stop-color="rgb(2,107,246)" stop-opacity="1"></stop>
	</linearGradient>
</defs>
<path d="M 290.311 864.043 C 272.659 839.999 249.132 810.033 236.691 783.653 C 207.135 719.962 204.167 647.12 228.445 581.236 C 254.619 509.094 303.643 454.679 373.31 421.848 C 433.31 393.572 507.487 387.688 570.236 410.539 C 638.594 434.619 694.553 484.92 725.754 550.335 C 758.297 615.727 762.893 691.531 738.49 760.377 C 726.13 795.927 709.529 816.087 688.001 846.373 C 667.184 875.362 646.738 904.617 626.669 934.129 C 600.544 973.603 574.632 1013.22 548.934 1052.97 C 533.773 1076.68 518.896 1100.56 503.295 1124.02 C 493.407 1138.89 482.826 1146.85 469.426 1129.69 C 459.886 1117.47 451.554 1104.39 442.86 1091.57 C 427.718 1069.63 412.78 1047.56 398.047 1025.35 C 396.956 949.076 397.856 870.963 397.79 794.494 L 397.745 724.897 C 397.724 705.693 396.57 683.443 400.483 664.755 C 414.129 599.575 496.902 570.698 544.931 619.415 C 561.359 636.408 570.499 659.147 570.401 682.782 C 569.705 743.785 512.999 766.3 460.172 764.983 C 455.805 764.869 451.438 764.726 447.073 764.555 C 446.87 796.097 446.844 827.639 446.995 859.18 C 502.501 866.894 549.642 858.388 595.322 823.988 C 635.81 793.33 662.444 747.829 669.352 697.516 C 675.846 650.395 658.026 602.126 629.74 564.868 C 612.685 542.262 590.455 524.078 564.917 511.843 C 559.133 509.099 543.498 503.311 539.111 500.575 C 486.736 487.158 439.908 489.493 392.193 517.696 C 346.715 544.762 313.89 588.826 300.975 640.147 C 291.764 676.157 296.353 711.899 295.387 748.737 C 295.172 756.954 295.873 769.789 295.043 777.568 C 296.127 807.067 295.237 840.537 295.213 870.379 L 290.311 864.043 z" fill="url(#Gradient7)" transform="translate(0,0)"></path>
<path d="M 290.311 864.043 C 291.77 862.899 293.025 862.462 293.309 860.564 C 297.115 835.163 291.243 802.314 295.043 777.568 C 296.127 807.067 295.237 840.537 295.213 870.379 L 290.311 864.043 z" fill="rgb(27,153,219)" transform="translate(0,0)"></path>
<path d="M 940.702 657.169 C 946.618 653.888 952.482 647.397 959.5 644.115 C 1014.38 618.451 1076.41 639.062 1108.93 685.687 C 1131.68 718.958 1140.1 759.981 1132.28 799.522 C 1119.56 867.132 1061.56 920.987 990.957 904.806 C 964.622 898.77 943.895 887.077 928.809 864.333 C 928.073 882.659 928.644 904.256 928.676 922.838 C 928.763 954.985 928.672 987.131 928.401 1019.28 C 907.811 1019.16 886.289 1018.76 865.786 1019.3 L 865.823 636.618 L 908.27 636.58 C 910.451 634.691 925.031 635.521 929.244 635.505 C 929.231 640.62 927.135 661.991 931.509 663.435 C 931.796 662.858 931.712 663.137 931.805 662.614 C 932.981 661.252 938.671 657.945 940.702 657.169 z" fill="url(#Gradient6)" transform="translate(0,0)"></path>
<path d="M 908.27 636.58 C 910.451 634.691 925.031 635.521 929.244 635.505 C 929.231 640.62 927.135 661.991 931.509 663.435 C 931.796 662.858 931.712 663.137 931.805 662.614 C 932.981 661.252 938.671 657.945 940.702 657.169 C 933.551 665.207 934.178 664.12 927.797 672.98 C 927.527 660.819 927.532 648.653 927.813 636.492 C 921.588 636.6 914.402 636.821 908.27 636.58 z" fill="rgb(233,245,244)" transform="translate(0,0)"></path>
<path d="M 992.763 690.281 C 1094.76 679.974 1107.45 837.483 1009.63 849.628 C 991.182 850.374 974.952 848.051 959.27 837.321 C 922.533 812.184 917.899 752.997 942.738 718.186 C 955.278 700.61 972.202 693.764 992.763 690.281 z" fill="rgb(255,255,255)" transform="translate(0,0)"></path>
<path d="M 2213.67 724.953 C 2235.94 662.216 2300.36 624.832 2365.88 636.626 C 2421.99 646.726 2465.84 690.761 2475.7 746.912 C 2485.56 803.063 2459.34 859.403 2410.03 888.017 C 2360.72 916.632 2298.8 911.442 2254.94 875.02 C 2211.08 838.598 2194.6 778.68 2213.67 724.953 z" fill="url(#Gradient5)" transform="translate(0,0)"></path>
<path d="M 2213.67 724.953 C 2235.94 662.216 2300.36 624.832 2365.88 636.626 C 2362.48 636.953 2362.58 636.739 2359.77 638.681 C 2350.83 644.854 2341.52 642.207 2331.84 644.493 C 2324.24 646.289 2328.87 658.81 2318.34 654.251 C 2314.91 659.195 2314.28 662.109 2308.45 662.884 C 2306.18 663.186 2305.34 663.731 2303.96 665.327 C 2300.9 678.774 2306.39 673.517 2292.51 683.36 C 2287.46 686.945 2289.07 705.363 2274.67 697.716 C 2273.5 697.097 2262.26 708.868 2259.02 709.39 L 2256.14 707.384 C 2236.14 716.338 2243.34 720.958 2221.46 712.703 C 2219.37 717.091 2217.58 722.465 2213.67 724.953 z" fill="rgb(67,197,103)" transform="translate(0,0)"></path>
<path d="M 2331.78 690.297 C 2431.46 682.324 2443.98 836.815 2347.34 850.62 C 2330.86 851.63 2314.25 848.827 2300.35 840.034 C 2250.59 808.57 2254.6 715.744 2312.77 695.154 C 2319.29 692.844 2325.11 691.615 2331.78 690.297 z" fill="rgb(255,255,255)" transform="translate(0,0)"></path>
<path d="M 1259.18 633.439 C 1261.62 633.286 1264.06 633.207 1266.51 633.201 C 1298.38 633.212 1329.95 642.142 1352.95 665.232 C 1392.01 704.447 1386.55 751.634 1386.61 801.695 L 1386.64 904.236 L 1324.85 904.342 C 1324.28 895.002 1324.15 885.694 1323.95 876.341 C 1320.23 882.722 1315.31 888.324 1309.47 892.842 C 1290.26 907.969 1261.07 910.954 1237.56 908.109 C 1211.33 904.936 1190.83 893.258 1174.62 872.629 C 1146.6 827.472 1161.08 762.401 1217.96 750.75 C 1250.81 744.023 1291.38 745.673 1325.26 746.381 C 1317.47 703.912 1293.9 687.508 1251.09 690.355 C 1228.27 691.872 1210.85 698.724 1192.32 711.929 L 1166.92 665.268 C 1199.71 644.892 1219.69 635.824 1259.18 633.439 z" fill="url(#Gradient4)" transform="translate(0,0)"></path>
<path d="M 1248.55 787.127 C 1266.61 785.395 1303.25 786.702 1322.06 786.981 C 1323.8 818.662 1322.14 844.159 1289.36 857.091 C 1274.33 860.85 1251.78 862.199 1237.43 855.271 C 1229.14 851.352 1222.81 844.223 1219.89 835.529 C 1211.08 809.629 1225.01 794.692 1248.55 787.127 z" fill="rgb(255,255,255)" transform="translate(0,0)"></path>
<path d="M 1642.6 518.781 L 1703.52 518.714 L 1703.54 611.742 C 1703.53 659.131 1702.03 714.301 1703.48 760.803 C 1730.06 731.218 1758.86 702.745 1786.04 673.657 C 1796.66 662.282 1810.99 648.49 1820.82 636.878 L 1888.51 636.802 C 1864.08 663.801 1839.25 690.439 1814.03 716.705 C 1805.2 725.951 1792.86 739.969 1783.87 748.369 C 1799.5 767.54 1816.75 792.886 1831.49 813.304 L 1897.89 904.344 L 1827.06 904.258 C 1802.22 865.541 1773.49 825.287 1747.71 786.704 C 1734.81 803.363 1717.56 823.43 1703.48 839.27 L 1703.78 904.093 C 1683.43 904.304 1663.08 904.309 1642.73 904.108 L 1642.73 736.255 C 1642.72 710.382 1641.58 674.512 1642.9 649.298 C 1642.29 645.235 1642.67 616.373 1642.68 610.462 C 1642.85 579.902 1642.83 549.341 1642.6 518.781 z" fill="url(#Gradient3)" transform="translate(0,0)"></path>
<path d="M 1642.6 518.781 L 1703.52 518.714 L 1703.54 611.742 L 1702.46 611.075 C 1697.71 619.316 1703.31 695.9 1700.22 698.656 L 1695.83 695.097 C 1690.73 695.949 1683.2 706.381 1682.87 711.919 C 1680.65 712.272 1677.81 708.153 1674.46 708.72 C 1673.27 708.923 1666.4 716.26 1666.67 716.187 C 1662.06 717.462 1658.07 717.572 1653.64 720.399 C 1651.43 725.575 1652.58 724.509 1648.63 726.535 L 1646.44 725.858 C 1642.7 709.845 1648.97 663.579 1642.9 649.298 C 1642.29 645.235 1642.67 616.373 1642.68 610.462 C 1642.85 579.902 1642.83 549.341 1642.6 518.781 z" fill="rgb(14,180,193)" transform="translate(0,0)"></path>
<path d="M 1980.19 672.851 C 2007.43 630.861 2056.35 626.625 2100.6 639.548 C 2127.83 651 2144.13 665.125 2155.52 693.19 C 2160.52 705.604 2163.73 718.668 2165.04 731.988 C 2167 750.317 2166.01 780.365 2165.93 799.741 L 2165.99 904.463 L 2105.02 904.532 L 2104.86 796.398 C 2104.7 745.587 2112.2 689.374 2042.52 689.953 C 1974.94 695.179 1982.03 754.669 1982.18 804.342 C 1982.3 837.673 1982.26 871.005 1982.05 904.336 C 1962.01 904.528 1941.97 904.519 1921.93 904.309 L 1921.72 636.844 C 1940.74 636.397 1961.37 636.839 1980.51 636.896 C 1980.59 648.882 1980.48 660.868 1980.19 672.851 z" fill="url(#Gradient2)" transform="translate(0,0)"></path>
<path d="M 1518.34 674.893 C 1522.53 668.57 1527.33 662.68 1532.68 657.312 C 1552.85 637.354 1572.22 633.265 1599.25 633.361 C 1599.34 653.525 1599.32 673.689 1599.19 693.853 L 1597.82 693.839 C 1574.57 693.63 1556.31 697.713 1539.16 714.394 C 1512.59 740.252 1517.43 783.413 1517.48 817.133 C 1517.62 846.256 1517.57 875.381 1517.34 904.504 C 1497.13 904.913 1475.94 904.441 1455.65 904.246 L 1455.79 636.922 C 1464.17 636.815 1511.64 635.47 1515.39 637.816 L 1515.95 641.856 C 1516.75 648.458 1514.86 672.29 1518.34 674.893 z" fill="url(#Gradient1)" transform="translate(0,0)"></path>
<path d="M 1515.95 641.856 C 1516.75 648.458 1514.86 672.29 1518.34 674.893 C 1517.95 676.14 1517.85 676.3 1517.32 677.384 C 1516.89 678.258 1515.67 678.349 1515.65 677.881 C 1515.19 667.415 1514.39 652.019 1515.95 641.856 z" fill="rgb(233,245,244)" transform="translate(0,0)"></path>
<metadata><recraft-signature>{"signed_by": "recraft", "signature_b64": "7h265E5+OK6SB7vVrXnovh7zBM/I6Iv4MmKU8GuVD72fhqfBP3WXurK2qUJ4p0YGoOgMYxOarzQg0VCslPcBCA==", "signing_algo": "Ed25519", "generation_timestamp": 1782560914, "identifier": "5916fd27-be89-44d3-bac9-a2cb5415c4bc"}</recraft-signature></metadata></svg>